<mxfile host="app.diagrams.net" modified="2024-05-21T09:25:27.616Z" agent="Mozilla/5.0 (Windows NT 10.0; Win64; x64) AppleWebKit/537.36 (KHTML, like Gecko) Chrome/124.0.0.0 Safari/537.36" etag="-C0Kikd7_wwBHLL9fEN_" version="24.4.4" type="github" pages="3">
  <diagram name="第 1 页" id="kAF0KJh2z9SARilEp1pK">
    <mxGraphModel dx="1703" dy="574" grid="0" gridSize="10" guides="1" tooltips="1" connect="1" arrows="1" fold="1" page="0" pageScale="1" pageWidth="827" pageHeight="1169" math="0" shadow="0">
      <root>
        <mxCell id="0" />
        <mxCell id="1" parent="0" />
        <mxCell id="RiNnjpaAugQMPAbGLbYd-27" style="edgeStyle=none;rounded=0;orthogonalLoop=1;jettySize=auto;html=1;exitX=1;exitY=0.75;exitDx=0;exitDy=0;entryX=0;entryY=0.75;entryDx=0;entryDy=0;strokeColor=default;align=center;verticalAlign=middle;fontFamily=Helvetica;fontSize=11;fontColor=default;labelBackgroundColor=default;endArrow=classic;" edge="1" parent="1" source="RiNnjpaAugQMPAbGLbYd-2" target="RiNnjpaAugQMPAbGLbYd-6">
          <mxGeometry relative="1" as="geometry" />
        </mxCell>
        <mxCell id="RiNnjpaAugQMPAbGLbYd-2" value="&lt;div style=&quot;&quot;&gt;Model模型&lt;/div&gt;" style="rounded=0;whiteSpace=wrap;html=1;align=left;" vertex="1" parent="1">
          <mxGeometry x="17" y="107" width="200" height="150" as="geometry" />
        </mxCell>
        <mxCell id="RiNnjpaAugQMPAbGLbYd-12" style="edgeStyle=none;rounded=0;orthogonalLoop=1;jettySize=auto;html=1;exitX=0;exitY=0.25;exitDx=0;exitDy=0;entryX=1;entryY=0.25;entryDx=0;entryDy=0;strokeColor=default;align=center;verticalAlign=middle;fontFamily=Helvetica;fontSize=11;fontColor=default;labelBackgroundColor=default;endArrow=classic;" edge="1" parent="1" source="RiNnjpaAugQMPAbGLbYd-5" target="RiNnjpaAugQMPAbGLbYd-6">
          <mxGeometry relative="1" as="geometry" />
        </mxCell>
        <mxCell id="RiNnjpaAugQMPAbGLbYd-13" value="用户请求" style="edgeLabel;html=1;align=center;verticalAlign=middle;resizable=0;points=[];fontFamily=Helvetica;fontSize=11;fontColor=default;labelBackgroundColor=default;" vertex="1" connectable="0" parent="RiNnjpaAugQMPAbGLbYd-12">
          <mxGeometry x="0.1979" y="-1" relative="1" as="geometry">
            <mxPoint as="offset" />
          </mxGeometry>
        </mxCell>
        <mxCell id="RiNnjpaAugQMPAbGLbYd-23" style="edgeStyle=none;rounded=0;orthogonalLoop=1;jettySize=auto;html=1;exitX=1;exitY=0.5;exitDx=0;exitDy=0;strokeColor=default;align=center;verticalAlign=middle;fontFamily=Helvetica;fontSize=11;fontColor=default;labelBackgroundColor=default;endArrow=classic;entryX=0.5;entryY=0.5;entryDx=0;entryDy=0;entryPerimeter=0;" edge="1" parent="1" source="RiNnjpaAugQMPAbGLbYd-5" target="RiNnjpaAugQMPAbGLbYd-20">
          <mxGeometry relative="1" as="geometry">
            <mxPoint x="1149.0910339355469" y="188.84093856811523" as="targetPoint" />
          </mxGeometry>
        </mxCell>
        <mxCell id="RiNnjpaAugQMPAbGLbYd-24" value="展示数据" style="edgeLabel;html=1;align=center;verticalAlign=middle;resizable=0;points=[];fontFamily=Helvetica;fontSize=11;fontColor=default;labelBackgroundColor=default;" vertex="1" connectable="0" parent="RiNnjpaAugQMPAbGLbYd-23">
          <mxGeometry x="-0.1948" relative="1" as="geometry">
            <mxPoint as="offset" />
          </mxGeometry>
        </mxCell>
        <mxCell id="RiNnjpaAugQMPAbGLbYd-5" value="&lt;div style=&quot;&quot;&gt;&lt;span style=&quot;background-color: initial;&quot;&gt;View视图&lt;/span&gt;&lt;/div&gt;" style="rounded=0;whiteSpace=wrap;html=1;align=left;" vertex="1" parent="1">
          <mxGeometry x="684" y="104" width="200" height="150" as="geometry" />
        </mxCell>
        <mxCell id="RiNnjpaAugQMPAbGLbYd-14" style="edgeStyle=none;rounded=0;orthogonalLoop=1;jettySize=auto;html=1;exitX=0;exitY=0.25;exitDx=0;exitDy=0;entryX=1;entryY=0.25;entryDx=0;entryDy=0;strokeColor=default;align=center;verticalAlign=middle;fontFamily=Helvetica;fontSize=11;fontColor=default;labelBackgroundColor=default;endArrow=classic;" edge="1" parent="1" source="RiNnjpaAugQMPAbGLbYd-6" target="RiNnjpaAugQMPAbGLbYd-2">
          <mxGeometry relative="1" as="geometry" />
        </mxCell>
        <mxCell id="RiNnjpaAugQMPAbGLbYd-15" value="转发处理" style="edgeLabel;html=1;align=center;verticalAlign=middle;resizable=0;points=[];fontFamily=Helvetica;fontSize=11;fontColor=default;labelBackgroundColor=default;" vertex="1" connectable="0" parent="RiNnjpaAugQMPAbGLbYd-14">
          <mxGeometry x="0.2782" relative="1" as="geometry">
            <mxPoint as="offset" />
          </mxGeometry>
        </mxCell>
        <mxCell id="RiNnjpaAugQMPAbGLbYd-28" style="edgeStyle=none;rounded=0;orthogonalLoop=1;jettySize=auto;html=1;exitX=1;exitY=0.75;exitDx=0;exitDy=0;entryX=0;entryY=0.75;entryDx=0;entryDy=0;strokeColor=default;align=center;verticalAlign=middle;fontFamily=Helvetica;fontSize=11;fontColor=default;labelBackgroundColor=default;endArrow=classic;" edge="1" parent="1" source="RiNnjpaAugQMPAbGLbYd-6" target="RiNnjpaAugQMPAbGLbYd-5">
          <mxGeometry relative="1" as="geometry" />
        </mxCell>
        <mxCell id="RiNnjpaAugQMPAbGLbYd-29" value="传递模型中数据" style="edgeLabel;html=1;align=center;verticalAlign=middle;resizable=0;points=[];fontFamily=Helvetica;fontSize=11;fontColor=default;labelBackgroundColor=default;" vertex="1" connectable="0" parent="RiNnjpaAugQMPAbGLbYd-28">
          <mxGeometry x="-0.0664" y="-2" relative="1" as="geometry">
            <mxPoint as="offset" />
          </mxGeometry>
        </mxCell>
        <mxCell id="RiNnjpaAugQMPAbGLbYd-6" value="&lt;div style=&quot;&quot;&gt;&lt;span style=&quot;background-color: initial;&quot;&gt;Controller控制器&lt;/span&gt;&lt;/div&gt;" style="rounded=0;whiteSpace=wrap;html=1;align=left;" vertex="1" parent="1">
          <mxGeometry x="361" y="104" width="200" height="150" as="geometry" />
        </mxCell>
        <mxCell id="RiNnjpaAugQMPAbGLbYd-17" value="负责&lt;div&gt;管理数据&lt;br&gt;&lt;div&gt;处理业务逻辑&lt;/div&gt;&lt;/div&gt;" style="text;html=1;align=center;verticalAlign=middle;whiteSpace=wrap;rounded=0;fontFamily=Helvetica;fontSize=11;fontColor=default;labelBackgroundColor=default;" vertex="1" parent="1">
          <mxGeometry x="37" y="22" width="144" height="72" as="geometry" />
        </mxCell>
        <mxCell id="RiNnjpaAugQMPAbGLbYd-18" value="数据库" style="shape=cylinder3;whiteSpace=wrap;html=1;boundedLbl=1;backgroundOutline=1;size=15;fontFamily=Helvetica;fontSize=11;fontColor=default;labelBackgroundColor=default;" vertex="1" parent="1">
          <mxGeometry x="87" y="386" width="60" height="80" as="geometry" />
        </mxCell>
        <mxCell id="RiNnjpaAugQMPAbGLbYd-19" style="edgeStyle=none;rounded=0;orthogonalLoop=1;jettySize=auto;html=1;exitX=0.5;exitY=1;exitDx=0;exitDy=0;entryX=0.5;entryY=0;entryDx=0;entryDy=0;entryPerimeter=0;strokeColor=default;align=center;verticalAlign=middle;fontFamily=Helvetica;fontSize=11;fontColor=default;labelBackgroundColor=default;endArrow=classic;" edge="1" parent="1" source="RiNnjpaAugQMPAbGLbYd-2" target="RiNnjpaAugQMPAbGLbYd-18">
          <mxGeometry relative="1" as="geometry" />
        </mxCell>
        <mxCell id="RiNnjpaAugQMPAbGLbYd-21" style="edgeStyle=none;rounded=0;orthogonalLoop=1;jettySize=auto;html=1;exitX=0.5;exitY=0;exitDx=0;exitDy=0;exitPerimeter=0;entryX=1;entryY=0.25;entryDx=0;entryDy=0;strokeColor=default;align=center;verticalAlign=middle;fontFamily=Helvetica;fontSize=11;fontColor=default;labelBackgroundColor=default;endArrow=classic;" edge="1" parent="1" source="RiNnjpaAugQMPAbGLbYd-20" target="RiNnjpaAugQMPAbGLbYd-5">
          <mxGeometry relative="1" as="geometry" />
        </mxCell>
        <mxCell id="RiNnjpaAugQMPAbGLbYd-22" value="发送请求和输入" style="edgeLabel;html=1;align=center;verticalAlign=middle;resizable=0;points=[];fontFamily=Helvetica;fontSize=11;fontColor=default;labelBackgroundColor=default;" vertex="1" connectable="0" parent="RiNnjpaAugQMPAbGLbYd-21">
          <mxGeometry x="0.1111" y="-1" relative="1" as="geometry">
            <mxPoint as="offset" />
          </mxGeometry>
        </mxCell>
        <mxCell id="RiNnjpaAugQMPAbGLbYd-20" value="Actor" style="shape=umlActor;verticalLabelPosition=bottom;verticalAlign=top;html=1;outlineConnect=0;fontFamily=Helvetica;fontSize=11;fontColor=default;labelBackgroundColor=default;" vertex="1" parent="1">
          <mxGeometry x="1139" y="128" width="30" height="60" as="geometry" />
        </mxCell>
        <mxCell id="RiNnjpaAugQMPAbGLbYd-25" value="业务对象&lt;br&gt;实体类&lt;div&gt;数据访问对象DAO&lt;br&gt;服务层&lt;/div&gt;" style="text;html=1;align=center;verticalAlign=middle;whiteSpace=wrap;rounded=0;fontFamily=Helvetica;fontSize=11;fontColor=default;labelBackgroundColor=default;" vertex="1" parent="1">
          <mxGeometry x="92" y="140" width="100" height="73" as="geometry" />
        </mxCell>
        <mxCell id="RiNnjpaAugQMPAbGLbYd-26" value="负责&lt;br&gt;处理用户请求&lt;br&gt;调用相应的业务逻辑" style="text;html=1;align=center;verticalAlign=middle;whiteSpace=wrap;rounded=0;fontFamily=Helvetica;fontSize=11;fontColor=default;labelBackgroundColor=default;" vertex="1" parent="1">
          <mxGeometry x="421.5" y="300" width="115" height="33" as="geometry" />
        </mxCell>
      </root>
    </mxGraphModel>
  </diagram>
  <diagram id="mxKGrzBDoYY5SCLDbvGI" name="第 2 页" />
  <diagram id="1r3lVqOot0E_WHVVqB7V" name="第 3 页">
    <mxGraphModel dx="1071" dy="540" grid="0" gridSize="10" guides="1" tooltips="1" connect="1" arrows="1" fold="1" page="0" pageScale="1" pageWidth="827" pageHeight="1169" math="0" shadow="0">
      <root>
        <mxCell id="0" />
        <mxCell id="1" parent="0" />
        <mxCell id="VphkQq2MSpuUbkHGNd7--28" value="" style="group" vertex="1" connectable="0" parent="1">
          <mxGeometry x="40" y="80" width="720" height="360" as="geometry" />
        </mxCell>
        <mxCell id="VphkQq2MSpuUbkHGNd7--3" value="H5" style="rounded=0;whiteSpace=wrap;html=1;fontFamily=宋体;" vertex="1" parent="VphkQq2MSpuUbkHGNd7--28">
          <mxGeometry x="120" width="120" height="40" as="geometry" />
        </mxCell>
        <mxCell id="VphkQq2MSpuUbkHGNd7--4" value="Vue.js" style="rounded=0;whiteSpace=wrap;html=1;fontFamily=宋体;" vertex="1" parent="VphkQq2MSpuUbkHGNd7--28">
          <mxGeometry x="280" width="120" height="40" as="geometry" />
        </mxCell>
        <mxCell id="VphkQq2MSpuUbkHGNd7--5" value="ElementUI" style="rounded=0;whiteSpace=wrap;html=1;fontFamily=宋体;" vertex="1" parent="VphkQq2MSpuUbkHGNd7--28">
          <mxGeometry x="440" width="120" height="40" as="geometry" />
        </mxCell>
        <mxCell id="VphkQq2MSpuUbkHGNd7--6" value="Nginx" style="rounded=0;whiteSpace=wrap;html=1;fontFamily=宋体;" vertex="1" parent="VphkQq2MSpuUbkHGNd7--28">
          <mxGeometry x="120" y="80" width="440" height="40" as="geometry" />
        </mxCell>
        <mxCell id="VphkQq2MSpuUbkHGNd7--7" value="Spring Boot" style="rounded=0;whiteSpace=wrap;html=1;fontFamily=宋体;" vertex="1" parent="VphkQq2MSpuUbkHGNd7--28">
          <mxGeometry x="120" y="160" width="120" height="40" as="geometry" />
        </mxCell>
        <mxCell id="VphkQq2MSpuUbkHGNd7--8" value="Spring MVC" style="rounded=0;whiteSpace=wrap;html=1;fontFamily=宋体;" vertex="1" parent="VphkQq2MSpuUbkHGNd7--28">
          <mxGeometry x="280" y="160" width="120" height="40" as="geometry" />
        </mxCell>
        <mxCell id="VphkQq2MSpuUbkHGNd7--9" value="Spring Session" style="rounded=0;whiteSpace=wrap;html=1;fontFamily=宋体;" vertex="1" parent="VphkQq2MSpuUbkHGNd7--28">
          <mxGeometry x="440" y="160" width="120" height="40" as="geometry" />
        </mxCell>
        <mxCell id="VphkQq2MSpuUbkHGNd7--10" value="Spring" style="rounded=0;whiteSpace=wrap;html=1;fontFamily=宋体;" vertex="1" parent="VphkQq2MSpuUbkHGNd7--28">
          <mxGeometry x="120" y="240" width="120" height="40" as="geometry" />
        </mxCell>
        <mxCell id="VphkQq2MSpuUbkHGNd7--11" value="Swagger" style="rounded=0;whiteSpace=wrap;html=1;fontFamily=宋体;" vertex="1" parent="VphkQq2MSpuUbkHGNd7--28">
          <mxGeometry x="280" y="240" width="120" height="40" as="geometry" />
        </mxCell>
        <mxCell id="VphkQq2MSpuUbkHGNd7--12" value="lombok" style="rounded=0;whiteSpace=wrap;html=1;fontFamily=宋体;" vertex="1" parent="VphkQq2MSpuUbkHGNd7--28">
          <mxGeometry x="440" y="240" width="120" height="40" as="geometry" />
        </mxCell>
        <mxCell id="VphkQq2MSpuUbkHGNd7--13" value="Mysql" style="rounded=0;whiteSpace=wrap;html=1;fontFamily=宋体;" vertex="1" parent="VphkQq2MSpuUbkHGNd7--28">
          <mxGeometry x="120" y="320" width="80" height="40" as="geometry" />
        </mxCell>
        <mxCell id="VphkQq2MSpuUbkHGNd7--14" value="Mybatis" style="rounded=0;whiteSpace=wrap;html=1;fontFamily=宋体;" vertex="1" parent="VphkQq2MSpuUbkHGNd7--28">
          <mxGeometry x="240" y="320" width="80" height="40" as="geometry" />
        </mxCell>
        <mxCell id="VphkQq2MSpuUbkHGNd7--15" value="Mybatis plus" style="rounded=0;whiteSpace=wrap;html=1;fontFamily=宋体;" vertex="1" parent="VphkQq2MSpuUbkHGNd7--28">
          <mxGeometry x="360" y="320" width="80" height="40" as="geometry" />
        </mxCell>
        <mxCell id="VphkQq2MSpuUbkHGNd7--16" value="Redis" style="rounded=0;whiteSpace=wrap;html=1;fontFamily=宋体;" vertex="1" parent="VphkQq2MSpuUbkHGNd7--28">
          <mxGeometry x="480" y="320" width="80" height="40" as="geometry" />
        </mxCell>
        <mxCell id="VphkQq2MSpuUbkHGNd7--17" value="" style="rounded=0;whiteSpace=wrap;html=1;fontFamily=宋体;" vertex="1" parent="VphkQq2MSpuUbkHGNd7--28">
          <mxGeometry x="600" width="120" height="360" as="geometry" />
        </mxCell>
        <mxCell id="VphkQq2MSpuUbkHGNd7--19" value="git" style="rounded=0;whiteSpace=wrap;html=1;fontFamily=宋体;" vertex="1" parent="VphkQq2MSpuUbkHGNd7--28">
          <mxGeometry x="620" y="120" width="80" height="40" as="geometry" />
        </mxCell>
        <mxCell id="VphkQq2MSpuUbkHGNd7--21" value="maven" style="rounded=0;whiteSpace=wrap;html=1;fontFamily=宋体;" vertex="1" parent="VphkQq2MSpuUbkHGNd7--28">
          <mxGeometry x="620" y="200" width="80" height="40" as="geometry" />
        </mxCell>
        <mxCell id="VphkQq2MSpuUbkHGNd7--22" value="junit" style="rounded=0;whiteSpace=wrap;html=1;fontFamily=宋体;" vertex="1" parent="VphkQq2MSpuUbkHGNd7--28">
          <mxGeometry x="620" y="280" width="80" height="40" as="geometry" />
        </mxCell>
        <mxCell id="VphkQq2MSpuUbkHGNd7--23" value="工具" style="text;html=1;align=center;verticalAlign=middle;whiteSpace=wrap;rounded=0;fontFamily=宋体;" vertex="1" parent="VphkQq2MSpuUbkHGNd7--28">
          <mxGeometry x="630" y="11" width="60" height="30" as="geometry" />
        </mxCell>
        <mxCell id="VphkQq2MSpuUbkHGNd7--24" value="用户层" style="rounded=0;whiteSpace=wrap;html=1;fontFamily=宋体;" vertex="1" parent="VphkQq2MSpuUbkHGNd7--28">
          <mxGeometry y="1" width="80" height="40" as="geometry" />
        </mxCell>
        <mxCell id="VphkQq2MSpuUbkHGNd7--25" value="网关层" style="rounded=0;whiteSpace=wrap;html=1;fontFamily=宋体;" vertex="1" parent="VphkQq2MSpuUbkHGNd7--28">
          <mxGeometry y="80" width="80" height="40" as="geometry" />
        </mxCell>
        <mxCell id="VphkQq2MSpuUbkHGNd7--26" value="应用层" style="rounded=0;whiteSpace=wrap;html=1;fontFamily=宋体;" vertex="1" parent="VphkQq2MSpuUbkHGNd7--28">
          <mxGeometry y="160" width="80" height="120" as="geometry" />
        </mxCell>
        <mxCell id="VphkQq2MSpuUbkHGNd7--27" value="数据层" style="rounded=0;whiteSpace=wrap;html=1;fontFamily=宋体;" vertex="1" parent="VphkQq2MSpuUbkHGNd7--28">
          <mxGeometry y="320" width="80" height="40" as="geometry" />
        </mxCell>
      </root>
    </mxGraphModel>
  </diagram>
</mxfile>
